<?xml version="1.0" standalone="no"?>
<!DOCTYPE svg PUBLIC "-//W3C//DTD SVG 20010904//EN"
 "http://www.w3.org/TR/2001/REC-SVG-20010904/DTD/svg10.dtd">
<svg version="1.0" xmlns="http://www.w3.org/2000/svg"
 width="500.000000pt" height="500.000000pt" viewBox="0 0 500.000000 500.000000"
 preserveAspectRatio="xMidYMid meet">
<metadata>
Created by potrace 1.14, written by Peter Selinger 2001-2017
</metadata>
<g transform="translate(0.000000,500.000000) scale(0.100000,-0.100000)"
fill="#000000" stroke="none">
<path d="M2497 4273 c-4 -3 -7 -33 -7 -65 0 -51 2 -59 17 -56 22 4 27 27 18
84 -6 42 -14 52 -28 37z"/>
<path d="M2496 4059 c-3 -17 -6 -143 -6 -280 0 -215 2 -249 15 -249 13 0 15
38 15 280 0 256 -7 331 -24 249z"/>
<path d="M1210 3945 c0 -16 27 -32 37 -21 7 7 -16 36 -28 36 -5 0 -9 -7 -9
-15z"/>
<path d="M3780 3945 c-18 -21 -3 -32 16 -13 10 9 12 18 6 22 -5 3 -15 -1 -22
-9z"/>
<path d="M1260 3886 c0 -15 84 -128 130 -174 29 -29 60 -42 60 -25 0 10 -88
122 -134 171 -42 44 -56 51 -56 28z"/>
<path d="M3650 3801 c-80 -99 -92 -121 -67 -121 23 0 177 181 177 208 0 32
-36 3 -110 -87z"/>
<path d="M2932 3763 c-16 -31 -22 -72 -12 -78 11 -7 37 32 42 64 4 29 -17 39
-30 14z"/>
<path d="M2030 3755 c0 -22 29 -75 40 -75 14 0 13 33 -2 65 -12 27 -38 34 -38
10z"/>
<path d="M2874 3605 c-18 -45 -19 -95 0 -95 17 0 36 51 36 96 0 44 -17 43 -36
-1z"/>
<path d="M2080 3613 c1 -26 43 -108 55 -106 18 4 16 41 -5 82 -21 42 -50 55
-50 24z"/>
<path d="M1480 3607 c0 -15 147 -187 160 -187 36 0 -26 99 -104 168 -39 34
-56 40 -56 19z"/>
<path d="M3474 3585 c-23 -19 -58 -59 -79 -90 -31 -44 -36 -58 -26 -68 10 -9
18 -6 39 19 91 106 132 157 132 165 0 18 -26 8 -66 -26z"/>
<path d="M2495 3459 c-4 -18 -4 -101 0 -186 7 -141 9 -153 26 -153 17 0 19 8
18 98 -2 149 -13 265 -26 269 -6 2 -14 -10 -18 -28z"/>
<path d="M1060 3430 c0 -21 155 -118 168 -105 12 12 -15 38 -78 76 -64 39 -90
47 -90 29z"/>
<path d="M2815 3416 c-18 -26 -105 -295 -105 -321 0 -18 13 -26 27 -17 11 7
62 162 99 297 16 58 4 80 -21 41z"/>
<path d="M3875 3409 c-62 -39 -96 -69 -89 -80 3 -5 9 -9 13 -9 15 0 161 100
161 110 0 19 -34 10 -85 -21z"/>
<path d="M2160 3405 c0 -26 49 -160 97 -268 18 -41 31 -57 42 -54 9 2 15 10
13 18 -5 22 -101 269 -118 301 -18 35 -34 36 -34 3z"/>
<path d="M1696 3352 c-14 -23 314 -382 348 -382 3 0 6 8 6 18 -1 17 -314 362
-337 369 -6 2 -14 0 -17 -5z"/>
<path d="M3258 3318 c-83 -83 -298 -319 -298 -328 0 -28 29 -15 82 36 95 93
278 303 278 319 0 25 -18 17 -62 -27z"/>
<path d="M1310 3272 c0 -13 630 -434 643 -429 33 11 -6 44 -203 175 -336 224
-440 284 -440 254z"/>
<path d="M3565 3212 c-163 -101 -490 -319 -505 -337 -8 -10 -10 -19 -4 -25 6
-6 39 8 89 39 147 91 548 366 553 379 8 24 -25 10 -133 -56z"/>
<path d="M3733 2955 c-37 -16 -44 -35 -13 -35 29 0 70 21 70 37 0 16 -16 16
-57 -2z"/>
<path d="M1216 2933 c-11 -12 -6 -20 19 -31 50 -23 104 -7 58 16 -28 14 -69
22 -77 15z"/>
<path d="M3571 2902 c-55 -21 -65 -42 -22 -42 43 0 101 26 101 44 0 20 -23 19
-79 -2z"/>
<path d="M1356 2882 c-4 -6 4 -18 18 -27 27 -18 99 -25 105 -10 9 22 -110 58
-123 37z"/>
<path d="M3260 2789 c-79 -27 -151 -56 -159 -64 -31 -31 19 -26 145 15 136 44
204 74 204 90 0 18 -44 9 -190 -41z"/>
<path d="M1560 2807 c0 -16 67 -48 140 -67 25 -6 81 -23 124 -36 55 -17 82
-22 90 -14 19 19 -16 36 -154 79 -176 53 -200 58 -200 38z"/>
<path d="M713 2543 c-43 -3 -53 -7 -53 -22 0 -11 7 -22 16 -25 24 -9 172 -7
178 2 3 5 -2 18 -10 30 -16 23 -16 23 -131 15z"/>
<path d="M982 2543 c-48 -4 -53 -6 -50 -26 3 -22 6 -22 201 -25 l198 -2 -3 22
c-2 18 -12 24 -43 30 -40 7 -206 7 -303 1z"/>
<path d="M1510 2543 c-117 -4 -124 -6 -110 -33 10 -19 20 -20 245 -20 142 0
236 4 240 10 3 5 1 19 -5 30 -10 19 -19 20 -143 18 -73 -1 -175 -4 -227 -5z"/>
<path d="M3142 2540 c-19 -8 -21 -13 -12 -30 10 -19 20 -20 238 -20 125 0 233
4 240 8 7 5 10 15 7 24 -5 12 -33 16 -133 21 -173 9 -312 8 -340 -3z"/>
<path d="M3742 2543 c-58 -4 -63 -6 -60 -26 3 -22 6 -22 196 -25 168 -2 193 0
199 13 3 9 1 21 -5 27 -12 12 -218 19 -330 11z"/>
<path d="M4167 2539 c-13 -8 -15 -14 -7 -30 9 -16 22 -19 96 -19 68 0 86 3 91
16 3 8 2 19 -3 23 -15 14 -157 22 -177 10z"/>
<path d="M3094 2339 c-3 -6 -2 -15 2 -19 9 -9 188 -67 274 -90 25 -6 53 -13
63 -16 28 -9 20 24 -10 39 -32 17 -289 97 -309 97 -7 0 -16 -5 -20 -11z"/>
<path d="M1760 2294 c-132 -43 -200 -74 -200 -91 0 -20 12 -17 180 38 158 53
184 65 174 80 -9 15 -45 9 -154 -27z"/>
<path d="M3520 2189 c0 -14 63 -39 100 -39 40 0 39 25 -1 39 -40 14 -99 14
-99 0z"/>
<path d="M1620 1983 c-268 -178 -338 -233 -302 -233 14 0 239 141 445 278 178
119 226 162 182 162 -8 0 -154 -93 -325 -207z"/>
<path d="M3040 2176 c0 -7 116 -90 258 -183 325 -215 381 -248 394 -235 11 11
-55 58 -398 286 -121 80 -228 146 -237 146 -9 0 -17 -6 -17 -14z"/>
<path d="M1408 2164 c-31 -9 -48 -20 -48 -31 0 -13 8 -15 40 -10 46 6 94 33
85 47 -8 13 -20 12 -77 -6z"/>
<path d="M3706 2143 c-11 -12 -6 -20 19 -31 31 -14 62 -15 70 -3 10 17 -74 48
-89 34z"/>
<path d="M1261 2106 c-39 -13 -53 -36 -22 -36 24 0 71 20 71 31 0 15 -15 17
-49 5z"/>
<path d="M1939 1978 c-106 -108 -249 -272 -249 -287 0 -32 44 6 192 165 90 96
164 182 166 190 8 34 -34 8 -109 -68z"/>
<path d="M2960 2045 c0 -13 148 -181 281 -317 50 -52 89 -66 68 -25 -28 52
-314 357 -336 357 -7 0 -13 -7 -13 -15z"/>
<path d="M2266 1951 c-4 -6 -29 -83 -57 -172 -36 -118 -47 -165 -39 -173 8 -8
15 -5 26 9 18 25 96 270 98 309 1 29 -17 46 -28 27z"/>
<path d="M2703 1948 c-13 -16 114 -339 136 -346 25 -8 6 74 -49 208 -55 135
-70 159 -87 138z"/>
<path d="M2474 1905 c-10 -25 5 -348 16 -359 5 -5 13 -6 17 -2 22 22 9 366
-14 374 -7 2 -16 -4 -19 -13z"/>
<path d="M1135 1672 c-69 -44 -91 -67 -75 -77 17 -11 170 84 170 106 0 19 -37
8 -95 -29z"/>
<path d="M3780 1696 c0 -14 49 -50 117 -85 50 -25 53 -25 53 -7 0 15 -135 106
-157 106 -7 0 -13 -6 -13 -14z"/>
<path d="M1545 1519 c-74 -88 -90 -129 -37 -90 61 44 148 153 137 171 -12 20
-25 9 -100 -81z"/>
<path d="M3360 1592 c0 -25 103 -148 140 -167 45 -23 40 3 -13 63 -24 27 -56
65 -71 85 -30 40 -56 48 -56 19z"/>
<path d="M2114 1495 c-16 -40 -19 -95 -3 -95 14 0 39 63 39 100 0 40 -18 38
-36 -5z"/>
<path d="M2860 1511 c0 -30 23 -83 43 -100 29 -23 32 14 6 66 -26 52 -49 67
-49 34z"/>
<path d="M2490 1231 c0 -161 4 -282 9 -286 16 -9 22 92 19 329 -2 172 -6 230
-15 234 -10 3 -13 -57 -13 -277z"/>
<path d="M2930 1341 c0 -32 22 -81 36 -81 18 0 18 24 -2 66 -18 37 -34 45 -34
15z"/>
<path d="M1399 1337 c-8 -7 -46 -49 -82 -95 -61 -75 -80 -112 -59 -112 17 0
182 193 182 213 0 11 -23 8 -41 -6z"/>
<path d="M2060 1324 c-16 -40 -17 -66 -3 -71 14 -5 30 22 34 61 5 39 -18 46
-31 10z"/>
<path d="M3566 1338 c14 -24 98 -133 133 -170 37 -42 51 -47 51 -20 0 28 -142
196 -169 200 -17 3 -21 0 -15 -10z"/>
<path d="M1210 1099 c-10 -18 -9 -20 7 -17 10 2 19 11 21 21 5 24 -15 21 -28
-4z"/>
<path d="M3767 1114 c-9 -10 4 -34 19 -34 8 0 14 4 14 9 0 12 -26 32 -33 25z"/>
<path d="M2486 875 c-9 -25 -7 -70 4 -101 17 -43 32 -15 28 51 -3 57 -19 82
-32 50z"/>
</g>
</svg>
